<svg xmlns="http://www.w3.org/2000/svg" viewBox="0 0 640 640" role="img" aria-labelledby="title desc">
  <title id="title">Davannis Uniforms Mark</title>
  <desc id="desc">Navy and gold shield mark with a tailored uniform, letter D, and sewing needle.</desc>
  <defs>
    <linearGradient id="gold" x1="0" y1="0" x2="1" y2="1">
      <stop offset="0" stop-color="#d9a21b"/>
      <stop offset="0.5" stop-color="#f3c86b"/>
      <stop offset="1" stop-color="#a86f06"/>
    </linearGradient>
    <linearGradient id="navy" x1="0" y1="0" x2="1" y2="1">
      <stop offset="0" stop-color="#061a45"/>
      <stop offset="1" stop-color="#001139"/>
    </linearGradient>
    <filter id="softShadow" x="-20%" y="-20%" width="140%" height="140%">
      <feDropShadow dx="0" dy="10" stdDeviation="10" flood-color="#001139" flood-opacity="0.16"/>
    </filter>
  </defs>

  <rect width="640" height="640" fill="#fff"/>
  <g filter="url(#softShadow)">
    <path d="M320 42c67 56 151 87 251 90v205c0 137-83 242-251 322C152 579 69 474 69 337V132c100-3 184-34 251-90z"
      fill="#fff" stroke="url(#navy)" stroke-width="18" stroke-linejoin="round"/>
    <path d="M320 83c57 45 128 70 213 75v174c0 115-70 204-213 275C177 536 107 447 107 332V158c85-5 156-30 213-75z"
      fill="none" stroke="url(#gold)" stroke-width="9" stroke-linejoin="round"/>
  </g>

  <g transform="translate(148 138)">
    <path d="M81 76h132c105 0 187 78 187 190S318 456 213 456H81c47-13 51-28 51-79V155c0-51-4-66-51-79z"
      fill="url(#navy)"/>
    <path d="M200 98c81 10 137 73 137 168 0 91-54 152-137 168 48-39 72-95 72-168 0-74-24-129-72-168z"
      fill="#fff" opacity="0.96"/>
    <path d="M83 181l-41 19 28 253h149l29-253-42-19-61 130-62-130z" fill="url(#navy)"/>
    <path d="M101 178l44 74 43-74 19 9-62 124-63-124 19-9z" fill="#fff"/>
    <path d="M124 246l21 24 22-24-22 154-21-154z" fill="#fff"/>
    <path d="M92 205l26 28-36 19 45 58-18 94M199 205l-26 28 36 19-45 58 18 94"
      fill="none" stroke="url(#gold)" stroke-width="7" stroke-linecap="round" stroke-linejoin="round"/>
    <circle cx="145" cy="368" r="8" fill="url(#gold)"/>
    <circle cx="145" cy="406" r="8" fill="url(#gold)"/>
  </g>

  <g fill="none" stroke="url(#gold)" stroke-linecap="round" stroke-linejoin="round">
    <path d="M446 410c50 26 99 27 145 2" stroke-width="8"/>
    <path d="M392 448c89-72 140-150 171-236" stroke-width="8"/>
    <path d="M563 212c16-29 42-37 54-24 12 13 1 38-26 57-28 19-51 21-64 11" stroke-width="7"/>
    <path d="M570 238c38 31 46 71 38 117" stroke-width="6"/>
  </g>
</svg>
